<svg width="16" height="16" viewBox="0 0 16 16" fill="none" xmlns="http://www.w3.org/2000/svg">
<path d="M7.17325 5.79333C7.03887 5.79333 6.91 5.84671 6.81498 5.94173C6.71996 6.03675 6.66658 6.16562 6.66658 6.3V13.9333C6.66658 14.2133 6.89325 14.44 7.17325 14.44C7.29992 14.44 7.40658 14.4 7.49325 14.3333L8.76658 13.3L9.87325 15.7133C9.95992 15.8933 10.1399 16 10.3332 16C10.4066 16 10.4799 16 10.5532 15.9467L12.3932 15.0933C12.6466 14.9733 12.7666 14.6667 12.6332 14.42L11.5199 12L13.1266 11.7C13.237 11.6713 13.3366 11.6111 13.4132 11.5267C13.5932 11.3133 13.5666 11 13.3332 10.8067L7.50658 5.90667L7.49992 5.91333C7.40873 5.83582 7.29293 5.79328 7.17325 5.79333ZM9.99992 6.66667V5.33333H13.3332V6.66667H9.99992ZM9.21992 3.17333L11.1066 1.28667L12.0466 2.22667L10.1599 4.11333L9.21992 3.17333ZM6.66658 0H7.99992V3.33333H6.66658V0ZM2.61992 9.77333L4.50658 7.88667L5.44658 8.82667L3.55992 10.7133L2.61992 9.77333ZM2.61992 2.22667L3.55992 1.28667L5.44658 3.17333L4.50658 4.11333L2.61992 2.22667ZM4.66658 6.66667H1.33325V5.33333H4.66658V6.66667Z" fill="#F0AD4E"/>
</svg>
