<svg xmlns="http://www.w3.org/2000/svg" version="1.1" xmlns:xlink="http://www.w3.org/1999/xlink" xmlns:svgjs="http://svgjs.com/svgjs" width="32" height="32"><svg width="32" height="32" viewBox="0 0 32 32" fill="none" xmlns="http://www.w3.org/2000/svg">
<path d="M14.3465 11.5867C14.0777 11.5867 13.82 11.6934 13.63 11.8835C13.4399 12.0735 13.3332 12.3312 13.3332 12.6V27.8667C13.3332 28.4267 13.7865 28.88 14.3465 28.88C14.5998 28.88 14.8132 28.8 14.9865 28.6667L17.5332 26.6L19.7465 31.4267C19.9198 31.7867 20.2798 32 20.6665 32C20.8132 32 20.9598 32 21.1065 31.8933L24.7865 30.1867C25.2932 29.9467 25.5332 29.3333 25.2665 28.84L23.0398 24L26.2532 23.4C26.4739 23.3426 26.6731 23.2222 26.8265 23.0533C27.1865 22.6267 27.1332 22 26.6665 21.6133L15.0132 11.8133L14.9998 11.8267C14.8175 11.6716 14.5859 11.5866 14.3465 11.5867ZM19.9998 13.3333V10.6667H26.6665V13.3333H19.9998ZM18.4398 6.34667L22.2132 2.57333L24.0932 4.45333L20.3198 8.22667L18.4398 6.34667ZM13.3332 0H15.9998V6.66667H13.3332V0ZM5.23984 19.5467L9.01317 15.7733L10.8932 17.6533L7.11984 21.4267L5.23984 19.5467ZM5.23984 4.45333L7.11984 2.57333L10.8932 6.34667L9.01317 8.22667L5.23984 4.45333ZM9.33317 13.3333H2.6665V10.6667H9.33317V13.3333Z" fill="#F0AD4E"></path>
</svg><style>@media (prefers-color-scheme: light) { :root { filter: none; } }
</style></svg>