<svg width="280" height="81" viewBox="0 0 280 81" fill="none" xmlns="http://www.w3.org/2000/svg">
<g clip-path="url(#clip0_10_1372)">
<path d="M34.97 29.7425C34.3149 29.7425 33.6867 30.0027 33.2234 30.4659C32.7602 30.9292 32.5 31.5574 32.5 32.2125V69.425C32.5 70.79 33.605 71.895 34.97 71.895C35.5875 71.895 36.1075 71.7 36.53 71.375L42.7375 66.3375L48.1325 78.1025C48.555 78.98 49.4325 79.5 50.375 79.5C50.7325 79.5 51.09 79.5 51.4475 79.24L60.4175 75.08C61.6525 74.495 62.2375 73 61.5875 71.7975L56.16 60L63.9925 58.5375C64.5305 58.3976 65.0162 58.104 65.39 57.6925C66.2675 56.6525 66.1375 55.125 65 54.1825L36.595 30.295L36.5625 30.3275C36.118 29.9496 35.5534 29.7422 34.97 29.7425ZM48.75 34V27.5H65V34H48.75ZM44.9475 16.97L54.145 7.7725L58.7275 12.355L49.53 21.5525L44.9475 16.97ZM32.5 1.5H39V17.75H32.5V1.5ZM12.7725 49.145L21.97 39.9475L26.5525 44.53L17.355 53.7275L12.7725 49.145ZM12.7725 12.355L17.355 7.7725L26.5525 16.97L21.97 21.5525L12.7725 12.355ZM22.75 34H6.5V27.5H22.75V34Z" fill="#F0AD4E"/>
</g>
<path d="M88.7188 28V23.957H90.5938V13.3867H88.7188V9.34375H98.2227L102.172 19.5391L106.25 9.34375H114.84V13.3867H112.965V23.957H114.84V28H105.43V23.957H107.07V16.1992L102.406 28H99.0781L94.4141 16.1992V23.957H96.0547V28H88.7188ZM115.766 28V23.957H117.465L120.969 13.3867H118.449V9.34375H130.027L134.41 23.957H136.109V28H125.598V23.957H127.531L126.992 21.9062H122.164L121.555 23.957H123.488V28H115.766ZM123.031 18.9766H126.219L124.73 13.2812L123.031 18.9766ZM137.117 28V23.957H138.992V13.3867H137.117V9.34375H147.887C150.215 9.34375 152.004 9.78125 153.254 10.6562C154.504 11.5234 155.129 12.7969 155.129 14.4766C155.129 15.5625 154.859 16.4648 154.32 17.1836C153.781 17.9023 153.051 18.4141 152.129 18.7188C152.863 18.9609 153.406 19.3398 153.758 19.8555C154.117 20.3711 154.305 21 154.32 21.7422L154.344 22.7148C154.359 23.1289 154.449 23.4414 154.613 23.6523C154.785 23.8555 155.074 23.957 155.48 23.957H156.723V28H152.645C151.152 28 150.047 27.6562 149.328 26.9688C148.617 26.2734 148.254 25.2578 148.238 23.9219L148.215 22.3633C148.191 21.1133 147.613 20.4883 146.48 20.4883H144.945V23.957H146.527V28H137.117ZM146.762 13.2695H144.945V17.2305H146.762C148.262 17.2305 149.012 16.5703 149.012 15.25C149.012 13.9297 148.262 13.2695 146.762 13.2695ZM157.648 28V23.957H159.523V13.3867H157.648V9.34375H166.895V13.3867H165.477V17.7695L170.07 13.3867H168.652V9.34375H176.363V13.3867H174.781L170.141 17.6641H170.586C172.008 17.6641 173.066 18.0117 173.762 18.707C174.457 19.3945 174.82 20.4062 174.852 21.7422L174.875 22.7148C174.891 23.1289 174.98 23.4414 175.145 23.6523C175.316 23.8555 175.605 23.957 176.012 23.957H177.254V28H173.176C171.684 28 170.578 27.6562 169.859 26.9688C169.148 26.2734 168.785 25.2578 168.77 23.9219L168.746 22.3633C168.723 21.1133 168.145 20.4883 167.012 20.4883H165.477V23.957H167.059V28H157.648ZM178.18 28V23.957H180.055V13.3867H178.18V9.34375H194.773V16.7617H190.906L190.496 13.3281H186.008V16.4922H189.172V20.4766H186.008V24.0156H190.496L190.906 20.0664H194.773V28H178.18ZM199.777 28V23.957H203.176V13.1523H201.078L200.609 17.1016H196.742V9.34375H215.703V17.1016H211.836L211.367 13.1523H209.27V23.957H212.668V28H199.777ZM216.875 28V23.957H218.867V13.3867H216.875V9.34375H226.953V13.3867H224.961V23.957H226.953V28H216.875ZM240.441 28.0117L234.031 17.3359V23.957H235.906V28H228.336V23.957H230.211V13.3867H228.336V9.34375H236.715L243.148 20.0195V13.3867H241.273V9.34375H248.844V13.3867H246.969V28L240.441 28.0117ZM261.395 28.3398C259.121 28.3398 257.156 27.9297 255.5 27.1094C253.852 26.2891 252.578 25.125 251.68 23.6172C250.781 22.1094 250.332 20.3242 250.332 18.2617C250.332 16.4102 250.691 14.793 251.41 13.4102C252.137 12.0195 253.148 10.9375 254.445 10.1641C255.75 9.39062 257.27 9.00391 259.004 9.00391C260.309 9.00391 261.41 9.1875 262.309 9.55469C263.215 9.92188 263.953 10.4648 264.523 11.1836L265.121 9.34375H268.344V16.1289H264.008C263.859 15.082 263.539 14.3242 263.047 13.8555C262.555 13.3789 261.852 13.1406 260.938 13.1406C260.211 13.1406 259.547 13.3242 258.945 13.6914C258.344 14.0508 257.863 14.6094 257.504 15.3672C257.145 16.1172 256.965 17.0781 256.965 18.25C256.965 19.9922 257.379 21.3242 258.207 22.2461C259.043 23.168 260.23 23.6289 261.77 23.6289C262.41 23.6289 262.977 23.5469 263.469 23.3828V21.4844H261.242V17.9688H268.742V26.6875C268.148 27.0078 267.445 27.293 266.633 27.543C265.82 27.793 264.965 27.9883 264.066 28.1289C263.168 28.2695 262.277 28.3398 261.395 28.3398Z" fill="white"/>
<path d="M138.641 67.2109C137.836 67.2109 137.117 67.0508 136.484 66.7305C135.859 66.4023 135.367 65.9531 135.008 65.3828C134.656 64.8125 134.48 64.1562 134.48 63.4141C134.48 62.2578 134.926 61.3359 135.816 60.6484C136.707 59.9609 137.895 59.6172 139.379 59.6172C139.895 59.6172 140.387 59.6484 140.855 59.7109C141.324 59.7734 141.801 59.8789 142.285 60.0273V59.7695C142.285 59.0586 142.066 58.543 141.629 58.2227C141.199 57.9023 140.508 57.7422 139.555 57.7422C138.867 57.7422 138.172 57.832 137.469 58.0117C136.766 58.1914 136.125 58.4414 135.547 58.7617L135.23 58.6211V55.1992C136.051 54.8789 136.98 54.6367 138.02 54.4727C139.066 54.3086 140.117 54.2266 141.172 54.2266C143.508 54.2266 145.215 54.6172 146.293 55.3984C147.371 56.1797 147.91 57.4336 147.91 59.1602V63.4844H149.434V67H143.035L142.461 65.1602C142.094 65.8008 141.57 66.3047 140.891 66.6719C140.219 67.0312 139.469 67.2109 138.641 67.2109ZM141.09 64.2109C141.301 64.2109 141.52 64.1758 141.746 64.1055C141.98 64.0273 142.16 63.9258 142.285 63.8008V61.8438C142.09 61.7578 141.891 61.6992 141.688 61.668C141.492 61.6367 141.309 61.6211 141.137 61.6211C140.738 61.6211 140.402 61.7383 140.129 61.9727C139.863 62.207 139.73 62.5195 139.73 62.9102C139.73 63.3086 139.855 63.625 140.105 63.8594C140.355 64.0938 140.684 64.2109 141.09 64.2109ZM160.871 63.7773C162.395 63.7773 163.543 64.0859 164.316 64.7031C165.098 65.3203 165.488 66.1992 165.488 67.3398C165.488 68.332 165.148 69.168 164.469 69.8477C163.797 70.5273 162.855 71.0391 161.645 71.3828C160.434 71.7266 159.02 71.8984 157.402 71.8984C155.801 71.8984 154.496 71.7539 153.488 71.4648C152.488 71.1836 151.754 70.8047 151.285 70.3281C150.824 69.8594 150.594 69.3477 150.594 68.793C150.594 68.3711 150.75 67.9883 151.062 67.6445C151.383 67.3008 151.789 67.0508 152.281 66.8945C151.719 66.4414 151.438 65.8477 151.438 65.1133C151.438 64.4648 151.668 63.9219 152.129 63.4844C152.598 63.0391 153.262 62.7109 154.121 62.5C153.074 62.1953 152.203 61.7188 151.508 61.0703C150.82 60.4219 150.477 59.5977 150.477 58.5977C150.477 57.2852 151.082 56.2305 152.293 55.4336C153.504 54.6289 155.273 54.2266 157.602 54.2266C158.828 54.2266 159.926 54.3828 160.895 54.6953L165.77 54.2148V57.8477H164.293C164.348 58.0898 164.375 58.3398 164.375 58.5977C164.375 59.9102 163.75 60.9648 162.5 61.7617C161.25 62.5508 159.469 62.9453 157.156 62.9453C156.594 62.9453 156.312 63.082 156.312 63.3555C156.312 63.6367 156.594 63.7773 157.156 63.7773H160.871ZM157.602 56.7109C157.125 56.7031 156.723 56.8672 156.395 57.2031C156.066 57.5312 155.902 57.9883 155.902 58.5742C155.902 59.168 156.062 59.6328 156.383 59.9688C156.711 60.3047 157.117 60.4688 157.602 60.4609C158.086 60.4531 158.488 60.2852 158.809 59.957C159.137 59.6211 159.301 59.1602 159.301 58.5742C159.301 57.9961 159.137 57.543 158.809 57.2148C158.488 56.8867 158.086 56.7188 157.602 56.7109ZM154.156 68.1367C154.156 68.6055 154.398 68.9727 154.883 69.2383C155.367 69.5117 156.09 69.6484 157.051 69.6484C158.098 69.6484 158.852 69.5273 159.312 69.2852C159.773 69.043 160.004 68.7344 160.004 68.3594C160.004 67.9688 159.723 67.7734 159.16 67.7734H155.562C155.086 67.7734 154.645 67.7422 154.238 67.6797C154.184 67.8281 154.156 67.9805 154.156 68.1367ZM173.656 67.2109C171.336 67.2109 169.516 66.6289 168.195 65.4648C166.883 64.293 166.227 62.6719 166.227 60.6016C166.227 59.2969 166.512 58.168 167.082 57.2148C167.66 56.2617 168.465 55.5273 169.496 55.0117C170.527 54.4883 171.727 54.2266 173.094 54.2266C174.43 54.2266 175.574 54.4727 176.527 54.9648C177.48 55.4492 178.207 56.1289 178.707 57.0039C179.215 57.8711 179.469 58.875 179.469 60.0156C179.469 60.2812 179.457 60.5391 179.434 60.7891C179.41 61.0312 179.383 61.2539 179.352 61.457H171.816C171.949 62.2539 172.309 62.8281 172.895 63.1797C173.488 63.5234 174.211 63.6953 175.062 63.6953C175.781 63.6953 176.465 63.5703 177.113 63.3203C177.77 63.0625 178.324 62.7422 178.777 62.3594L179.094 62.5V65.8633C178.719 66.1211 178.234 66.3516 177.641 66.5547C177.047 66.7578 176.402 66.918 175.707 67.0352C175.02 67.1523 174.336 67.2109 173.656 67.2109ZM173.398 57.1094C172.875 57.1094 172.48 57.3125 172.215 57.7188C171.949 58.125 171.801 58.6914 171.77 59.418H175.027C174.996 58.6914 174.848 58.125 174.582 57.7188C174.324 57.3125 173.93 57.1094 173.398 57.1094ZM180.969 67V63.4844H182.668V58.1055H180.969V54.9062L188.176 54.2148V55.8086C188.66 55.3008 189.266 54.9102 189.992 54.6367C190.719 54.3555 191.5 54.2148 192.336 54.2148C193.75 54.2148 194.785 54.6172 195.441 55.4219C196.105 56.2188 196.438 57.4219 196.438 59.0312V63.4844H198.078V67H190.812V59.0312C190.812 58.5781 190.715 58.25 190.52 58.0469C190.324 57.8359 190.066 57.7305 189.746 57.7305C189.48 57.7305 189.215 57.8086 188.949 57.9648C188.691 58.1211 188.473 58.3359 188.293 58.6094V63.4844H189.348V67H180.969ZM206.41 67.2109C204.191 67.2109 202.441 66.6289 201.16 65.4648C199.887 64.293 199.25 62.6719 199.25 60.6016C199.25 59.3047 199.52 58.1797 200.059 57.2266C200.605 56.2734 201.332 55.5352 202.238 55.0117C203.152 54.4883 204.156 54.2266 205.25 54.2266C206.047 54.2266 206.746 54.3672 207.348 54.6484C207.949 54.9219 208.461 55.3008 208.883 55.7852L209.352 54.4375H211.941V59.6406H208.566C208.504 58.9688 208.32 58.4688 208.016 58.1406C207.711 57.8047 207.328 57.6367 206.867 57.6367C206.344 57.6367 205.875 57.8633 205.461 58.3164C205.055 58.7617 204.852 59.5078 204.852 60.5547C204.852 61.6406 205.137 62.418 205.707 62.8867C206.277 63.3477 207 63.5781 207.875 63.5781C208.531 63.5781 209.164 63.4492 209.773 63.1914C210.391 62.9336 210.922 62.6172 211.367 62.2422L211.684 62.3828V65.8633C211.316 66.1211 210.844 66.3516 210.266 66.5547C209.688 66.7578 209.062 66.918 208.391 67.0352C207.719 67.1523 207.059 67.2109 206.41 67.2109ZM216.148 71.6641V68.1484H219.043L219.465 67.3164L213.887 57.9531H212.773V54.4375H221.246V57.9531H219.84L222.09 62.0312L224.117 57.9531H222.711V54.4375H228.652V57.9531H227.539L222.465 68.1484H224.164V71.6641H216.148Z" fill="#F0AD4E"/>
<defs>
<clipPath id="clip0_10_1372">
<rect width="78" height="78" fill="white" transform="translate(0 1.5)"/>
</clipPath>
</defs>
</svg>
