<svg width="36" height="36" viewBox="0 0 36 36" fill="none" xmlns="http://www.w3.org/2000/svg">
<path d="M16.14 13.035C15.8377 13.035 15.5477 13.1551 15.3339 13.3689C15.1201 13.5827 15 13.8727 15 14.175V31.35C15 31.98 15.51 32.49 16.14 32.49C16.425 32.49 16.665 32.4 16.86 32.25L19.725 29.925L22.215 35.355C22.41 35.76 22.815 36 23.25 36C23.415 36 23.58 36 23.745 35.88L27.885 33.96C28.455 33.69 28.725 33 28.425 32.445L25.92 27L29.535 26.325C29.7833 26.2605 30.0075 26.1249 30.18 25.935C30.585 25.455 30.525 24.75 30 24.315L16.89 13.29L16.875 13.305C16.6698 13.1306 16.4093 13.0349 16.14 13.035ZM22.5 15V12H30V15H22.5ZM20.745 7.14L24.99 2.895L27.105 5.01L22.86 9.255L20.745 7.14ZM15 0H18V7.5H15V0ZM5.895 21.99L10.14 17.745L12.255 19.86L8.01 24.105L5.895 21.99ZM5.895 5.01L8.01 2.895L12.255 7.14L10.14 9.255L5.895 5.01ZM10.5 15H3V12H10.5V15Z" fill="#f0ad4e"/>
</svg>
