<svg width="69" height="23" viewBox="0 0 69 23" fill="none" xmlns="http://www.w3.org/2000/svg">
<circle cx="42.5" cy="2.5" r="2.5" fill="#CA9701"/>
<path d="M38.024 7.68V21H36.386V7.68H38.024ZM42.4537 7.68V21H40.8157V7.68H42.4537ZM44.6334 16.05C44.6334 15.03 44.8374 14.142 45.2454 13.386C45.6534 12.618 46.2174 12.024 46.9374 11.604C47.6694 11.184 48.5034 10.974 49.4394 10.974C50.6514 10.974 51.6474 11.268 52.4274 11.856C53.2194 12.444 53.7414 13.26 53.9934 14.304H52.2294C52.0614 13.704 51.7314 13.23 51.2394 12.882C50.7594 12.534 50.1594 12.36 49.4394 12.36C48.5034 12.36 47.7474 12.684 47.1714 13.332C46.5954 13.968 46.3074 14.874 46.3074 16.05C46.3074 17.238 46.5954 18.156 47.1714 18.804C47.7474 19.452 48.5034 19.776 49.4394 19.776C50.1594 19.776 50.7594 19.608 51.2394 19.272C51.7194 18.936 52.0494 18.456 52.2294 17.832H53.9934C53.7294 18.84 53.2014 19.65 52.4094 20.262C51.6174 20.862 50.6274 21.162 49.4394 21.162C48.5034 21.162 47.6694 20.952 46.9374 20.532C46.2174 20.112 45.6534 19.518 45.2454 18.75C44.8374 17.982 44.6334 17.082 44.6334 16.05ZM61.687 21L57.817 16.644V21H56.179V7.68H57.817V15.51L61.615 11.136H63.901L59.257 16.05L63.919 21H61.687Z" fill="white"/>
<path fill-rule="evenodd" clip-rule="evenodd" d="M35.1792 3.43148C32.5767 3.15132 29.8013 3 26.9201 3C12.0525 3 0 7.02944 0 12C0 16.9706 12.0525 21 26.9201 21C29.8013 21 32.5767 20.8487 35.1792 20.5685C21.8303 18.8647 12.8403 15.6656 12.8403 12C12.8403 8.3344 21.8303 5.13528 35.1792 3.43148Z" fill="#D4AE3E"/>
</svg>
