<svg width="126" height="26" viewBox="0 0 126 26" fill="none" xmlns="http://www.w3.org/2000/svg">
<path d="M14.5 0L27.0574 19.5H1.94263L14.5 0Z" fill="#CB9801"/>
<path d="M28.5 0L41.0574 19.5H15.9426L28.5 0Z" fill="#03247F"/>
<path d="M61.816 1.392V18H59.632V5.616L54.112 18H52.576L47.032 5.592V18H44.848V1.392H47.2L53.344 15.12L59.488 1.392H61.816ZM71.2559 18.216C70.0239 18.216 68.9039 17.936 67.8959 17.376C66.9039 16.816 66.1199 16.024 65.5439 15C64.9839 13.96 64.7039 12.76 64.7039 11.4C64.7039 10.056 64.9919 8.872 65.5679 7.848C66.1599 6.808 66.9599 6.016 67.9679 5.472C68.9759 4.912 70.1039 4.632 71.3519 4.632C72.5999 4.632 73.7279 4.912 74.7359 5.472C75.7439 6.016 76.5359 6.8 77.1119 7.824C77.7039 8.848 77.9999 10.04 77.9999 11.4C77.9999 12.76 77.6959 13.96 77.0879 15C76.4959 16.024 75.6879 16.816 74.6639 17.376C73.6399 17.936 72.5039 18.216 71.2559 18.216ZM71.2559 16.296C72.0399 16.296 72.7759 16.112 73.4639 15.744C74.1519 15.376 74.7039 14.824 75.1199 14.088C75.5519 13.352 75.7679 12.456 75.7679 11.4C75.7679 10.344 75.5599 9.448 75.1439 8.712C74.7279 7.976 74.1839 7.432 73.5119 7.08C72.8399 6.712 72.1119 6.528 71.3279 6.528C70.5279 6.528 69.7919 6.712 69.1199 7.08C68.4639 7.432 67.9359 7.976 67.5359 8.712C67.1359 9.448 66.9359 10.344 66.9359 11.4C66.9359 12.472 67.1279 13.376 67.5119 14.112C67.9119 14.848 68.4399 15.4 69.0959 15.768C69.7519 16.12 70.4719 16.296 71.2559 16.296ZM92.5354 4.848V18H90.3514V16.056C89.9354 16.728 89.3514 17.256 88.5994 17.64C87.8634 18.008 87.0474 18.192 86.1514 18.192C85.1274 18.192 84.2074 17.984 83.3914 17.568C82.5754 17.136 81.9274 16.496 81.4474 15.648C80.9834 14.8 80.7514 13.768 80.7514 12.552V4.848H82.9114V12.264C82.9114 13.56 83.2394 14.56 83.8954 15.264C84.5514 15.952 85.4474 16.296 86.5834 16.296C87.7514 16.296 88.6714 15.936 89.3434 15.216C90.0154 14.496 90.3514 13.448 90.3514 12.072V4.848H92.5354ZM102.631 4.608C104.231 4.608 105.527 5.096 106.519 6.072C107.511 7.032 108.007 8.424 108.007 10.248V18H105.847V10.56C105.847 9.248 105.519 8.248 104.863 7.56C104.207 6.856 103.311 6.504 102.175 6.504C101.023 6.504 100.103 6.864 99.415 7.584C98.743 8.304 98.407 9.352 98.407 10.728V18H96.223V4.848H98.407V6.72C98.839 6.048 99.423 5.528 100.159 5.16C100.911 4.792 101.735 4.608 102.631 4.608ZM114.239 6.648V14.4C114.239 15.04 114.375 15.496 114.647 15.768C114.919 16.024 115.391 16.152 116.063 16.152H117.671V18H115.703C114.487 18 113.575 17.72 112.967 17.16C112.359 16.6 112.055 15.68 112.055 14.4V6.648H110.351V4.848H112.055V1.536H114.239V4.848H117.671V6.648H114.239Z" fill="black"/>
</svg>
